<svg xmlns="http://www.w3.org/2000/svg" viewBox="0 0 720 180" width="720" height="180">
  <rect width="720" height="180" fill="#0A0F1E"/>
  <rect x="0" y="0" width="720" height="4" fill="#F59E0B"/>
  <rect x="1" y="1" width="718" height="178" fill="none" stroke="#1F2937" stroke-width="1"/>
  <line x1="10" y1="4" x2="10" y2="14" stroke="#374151" stroke-width="1"/>
  <line x1="4" y1="10" x2="14" y2="10" stroke="#374151" stroke-width="1"/>
  <line x1="710" y1="4" x2="710" y2="14" stroke="#374151" stroke-width="1"/>
  <line x1="706" y1="10" x2="716" y2="10" stroke="#374151" stroke-width="1"/>
  <line x1="10" y1="176" x2="10" y2="166" stroke="#374151" stroke-width="1"/>
  <line x1="4" y1="170" x2="14" y2="170" stroke="#374151" stroke-width="1"/>
  <line x1="710" y1="176" x2="710" y2="166" stroke="#374151" stroke-width="1"/>
  <line x1="706" y1="170" x2="716" y2="170" stroke="#374151" stroke-width="1"/>
  <rect x="20" y="47" width="130" height="28" fill="#0D1117"/>
  <rect x="20" y="90" width="130" height="28" fill="#0D1117"/>
  <rect x="20" y="133" width="130" height="28" fill="#0D1117"/>
  <rect x="20" y="47" width="130" height="28" fill="none" stroke="#64748B" stroke-width="1"/>
  <rect x="20" y="90" width="130" height="28" fill="none" stroke="#22D3EE" stroke-width="1"/>
  <rect x="20" y="133" width="130" height="28" fill="none" stroke="#F59E0B" stroke-width="1"/>
  <rect x="330" y="80" width="160" height="40" fill="#111827"/>
  <rect x="330" y="80" width="160" height="40" fill="none" stroke="#1F2937" stroke-width="1"/>
  <rect x="570" y="80" width="130" height="40" fill="#0D1117"/>
  <rect x="570" y="80" width="130" height="40" fill="none" stroke="#F59E0B" stroke-width="2"/>
  <line x1="150" y1="61" x2="296" y2="61" stroke="#94a3b8" stroke-width="1"/>
  <line x1="296" y1="61" x2="296" y2="100" stroke="#94a3b8" stroke-width="1"/>
  <line x1="150" y1="104" x2="296" y2="104" stroke="#94a3b8" stroke-width="1"/>
  <line x1="150" y1="147" x2="296" y2="147" stroke="#94a3b8" stroke-width="1"/>
  <line x1="296" y1="104" x2="296" y2="147" stroke="#94a3b8" stroke-width="1"/>
  <line x1="296" y1="100" x2="323" y2="100" stroke="#94a3b8" stroke-width="1"/>
  <polygon points="330,100 322,96 322,104" fill="#94a3b8"/>
  <line x1="490" y1="100" x2="563" y2="100" stroke="#F59E0B" stroke-width="1"/>
  <polygon points="570,100 562,96 562,104" fill="#F59E0B"/>
  <line x1="20" y1="160" x2="700" y2="160" stroke="#1F2937" stroke-width="1"/>
  <text x="360" y="24" font-family="Courier New,Courier,monospace" font-size="10" fill="#374151" letter-spacing="3" text-anchor="middle">AGENT PERSONALITY BENCHMARK -- EXPERIMENTAL APPARATUS</text>
  <text x="85" y="65" font-family="Courier New,Courier,monospace" font-size="11" fill="#64748B" letter-spacing="1" text-anchor="middle">ZERO AGENT</text>
  <text x="85" y="108" font-family="Courier New,Courier,monospace" font-size="11" fill="#22D3EE" letter-spacing="1" text-anchor="middle">LIGHT PROMPT</text>
  <text x="85" y="151" font-family="Courier New,Courier,monospace" font-size="11" fill="#F59E0B" letter-spacing="1" text-anchor="middle">YOUR PROFILE</text>
  <text x="410" y="97" font-family="Courier New,Courier,monospace" font-size="11" fill="#94a3b8" letter-spacing="1" text-anchor="middle">BENCHMARK ENGINE</text>
  <text x="410" y="111" font-family="Courier New,Courier,monospace" font-size="11" fill="#64748B" letter-spacing="1" text-anchor="middle">10 TASKS</text>
  <text x="635" y="97" font-family="Courier New,Courier,monospace" font-size="12" fill="#F59E0B" letter-spacing="1" text-anchor="middle">RESULTS</text>
  <text x="635" y="111" font-family="Courier New,Courier,monospace" font-size="11" fill="#94a3b8" letter-spacing="1" text-anchor="middle">6 DIMENSIONS</text>
  <text x="360" y="173" font-family="Courier New,Courier,monospace" font-size="10" fill="#374151" letter-spacing="3" text-anchor="middle">SAME 10 TASKS. SAME JUDGE. THREE SYSTEM PROMPTS.</text>
</svg>
