<svg xmlns="http://www.w3.org/2000/svg" viewBox="0 0 720 200" width="720" height="200">
  <rect width="720" height="200" fill="#0A0F1E"/>
  <rect x="0" y="0" width="720" height="4" fill="#F59E0B"/>
  <rect x="1" y="1" width="718" height="198" fill="none" stroke="#1F2937" stroke-width="1"/>
  <line x1="10" y1="4" x2="10" y2="14" stroke="#374151" stroke-width="1"/>
  <line x1="4" y1="10" x2="14" y2="10" stroke="#374151" stroke-width="1"/>
  <line x1="710" y1="4" x2="710" y2="14" stroke="#374151" stroke-width="1"/>
  <line x1="706" y1="10" x2="716" y2="10" stroke="#374151" stroke-width="1"/>
  <line x1="10" y1="196" x2="10" y2="186" stroke="#374151" stroke-width="1"/>
  <line x1="4" y1="190" x2="14" y2="190" stroke="#374151" stroke-width="1"/>
  <line x1="710" y1="196" x2="710" y2="186" stroke="#374151" stroke-width="1"/>
  <line x1="706" y1="190" x2="716" y2="190" stroke="#374151" stroke-width="1"/>
  <rect x="20" y="82" width="100" height="56" fill="#111827"/>
  <rect x="170" y="82" width="120" height="56" fill="#111827"/>
  <rect x="340" y="82" width="120" height="56" fill="#111827"/>
  <rect x="510" y="82" width="100" height="56" fill="#0A0F1E"/>
  <rect x="630" y="82" width="70" height="56" fill="#0A0F1E"/>
  <rect x="20" y="82" width="100" height="56" fill="none" stroke="#F59E0B" stroke-width="1"/>
  <rect x="170" y="82" width="120" height="56" fill="none" stroke="#1F2937" stroke-width="1"/>
  <rect x="340" y="82" width="120" height="56" fill="none" stroke="#1F2937" stroke-width="1"/>
  <rect x="510" y="82" width="100" height="56" fill="none" stroke="#22D3EE" stroke-width="1"/>
  <rect x="630" y="82" width="70" height="56" fill="none" stroke="#374151" stroke-width="1" stroke-dasharray="3,3"/>
  <line x1="120" y1="110" x2="163" y2="110" stroke="#374151" stroke-width="1"/>
  <polygon points="170,110 162,106 162,114" fill="#374151"/>
  <line x1="290" y1="110" x2="333" y2="110" stroke="#374151" stroke-width="1"/>
  <polygon points="340,110 332,106 332,114" fill="#374151"/>
  <line x1="460" y1="110" x2="503" y2="110" stroke="#22D3EE" stroke-width="1"/>
  <polygon points="510,110 502,106 502,114" fill="#22D3EE"/>
  <line x1="610" y1="110" x2="623" y2="110" stroke="#374151" stroke-width="1"/>
  <polygon points="630,110 622,106 622,114" fill="#374151"/>
  <line x1="20" y1="173" x2="700" y2="173" stroke="#1F2937" stroke-width="1"/>
  <text x="360" y="24" font-family="Courier New,Courier,monospace" font-size="10" fill="#374151" letter-spacing="3" text-anchor="middle">EXECUTION PIPELINE -- FULL SUITE RUN</text>
  <text x="70" y="106" font-family="Courier New,Courier,monospace" font-size="11" fill="#F59E0B" text-anchor="middle">PROFILE</text>
  <text x="70" y="120" font-family="Courier New,Courier,monospace" font-size="11" fill="#F59E0B" text-anchor="middle">YOUR AGENT</text>
  <text x="230" y="100" font-family="Courier New,Courier,monospace" font-size="11" fill="#94a3b8" text-anchor="middle">BENCHMARK</text>
  <text x="230" y="114" font-family="Courier New,Courier,monospace" font-size="11" fill="#94a3b8" text-anchor="middle">ENGINE</text>
  <text x="230" y="128" font-family="Courier New,Courier,monospace" font-size="11" fill="#64748B" text-anchor="middle">10 TASKS x 3 CONFIGS</text>
  <text x="400" y="100" font-family="Courier New,Courier,monospace" font-size="11" fill="#94a3b8" text-anchor="middle">JUDGE</text>
  <text x="400" y="114" font-family="Courier New,Courier,monospace" font-size="11" fill="#94a3b8" text-anchor="middle">SCORING</text>
  <text x="400" y="128" font-family="Courier New,Courier,monospace" font-size="11" fill="#64748B" text-anchor="middle">3 RUNS / MEDIAN</text>
  <text x="400" y="152" font-family="Courier New,Courier,monospace" font-size="11" fill="#64748B" text-anchor="middle">AUTOMATED + LLM</text>
  <text x="560" y="100" font-family="Courier New,Courier,monospace" font-size="11" fill="#22D3EE" text-anchor="middle">RESULTS</text>
  <text x="560" y="114" font-family="Courier New,Courier,monospace" font-size="11" fill="#22D3EE" text-anchor="middle">HTML + JSON</text>
  <text x="560" y="128" font-family="Courier New,Courier,monospace" font-size="11" fill="#64748B" text-anchor="middle">history.jsonl</text>
  <text x="665" y="106" font-family="Courier New,Courier,monospace" font-size="11" fill="#64748B" text-anchor="middle">NEXT</text>
  <text x="665" y="120" font-family="Courier New,Courier,monospace" font-size="11" fill="#64748B" text-anchor="middle">RUN</text>
  <text x="360" y="188" font-family="Courier New,Courier,monospace" font-size="10" fill="#64748B" letter-spacing="2" text-anchor="middle">EACH FULL RUN: 30 EXECUTIONS -- 90 JUDGE EVALUATIONS -- ~$15-40</text>
</svg>
